<svg xmlns="http://www.w3.org/2000/svg" width="96" height="96" viewBox="0 0 96 96" version="1.1"><path d="M 43.870 11.034 C 41.874 12.666, 37.608 15.586, 34.390 17.524 C 29.029 20.752, 26.712 21.626, 18.750 23.419 C 16.167 24.001, 16 24.365, 16 29.431 C 16 40.668, 20.310 56.520, 26.168 66.836 C 29.863 73.340, 39.922 83.874, 44.894 86.445 C 48.874 88.503, 50.415 88.010, 56.873 82.610 C 69.969 71.658, 78.239 53.603, 79.684 32.805 L 80.289 24.111 77.394 23.510 C 66.391 21.226, 61.484 18.960, 53.551 12.499 C 50.514 10.024, 47.909 8.015, 47.764 8.034 C 47.619 8.052, 45.867 9.402, 43.870 11.034 M 42.455 34.455 C 39.463 37.446, 39.259 41.788, 41.949 45.208 C 43.720 47.459, 43.779 48.090, 42.597 52.093 C 41.881 54.517, 40.995 57.737, 40.628 59.250 L 39.962 62 48 62 L 56.038 62 55.372 59.250 C 55.005 57.737, 54.119 54.517, 53.403 52.093 C 52.221 48.090, 52.280 47.459, 54.051 45.208 C 58.243 39.879, 54.634 32, 48 32 C 46.052 32, 44.002 32.907, 42.455 34.455" stroke="none" fill="#fcc304" fill-rule="evenodd"/></svg>